<?xml version="1.0" standalone="no"?>
<!DOCTYPE svg PUBLIC "-//W3C//DTD SVG 20010904//EN"
 "http://www.w3.org/TR/2001/REC-SVG-20010904/DTD/svg10.dtd">
<svg version="1.0" xmlns="http://www.w3.org/2000/svg"
 width="501.000000pt" height="501.000000pt" viewBox="0 0 501.000000 501.000000"
 preserveAspectRatio="xMidYMid meet">
<metadata>
Created by potrace 1.14, written by Peter Selinger 2001-2017
</metadata>
<g transform="translate(0.000000,501.000000) scale(0.100000,-0.100000)"
fill="#000000" stroke="none">
<path d="M2393 4482 c-59 -59 -157 -145 -218 -192 -171 -133 -257 -223 -340
-355 -140 -223 -180 -469 -118 -725 18 -75 66 -216 94 -277 10 -24 19 -45 19
-47 0 -3 18 -44 41 -93 61 -132 139 -319 139 -335 0 -8 4 -18 10 -24 11 -11
70 -236 70 -269 l0 -24 118 0 c138 1 128 -11 100 132 -33 169 -89 324 -233
642 -70 153 -111 270 -141 397 -3 13 -7 63 -8 113 -7 239 116 467 349 643 33
25 89 70 125 101 36 30 72 61 81 68 15 12 35 -1 167 -107 230 -184 296 -259
367 -414 46 -100 59 -166 58 -281 -1 -139 -44 -294 -141 -505 -169 -368 -222
-524 -257 -751 l-6 -37 118 -1 118 -1 17 88 c21 110 66 243 135 402 184 422
211 495 239 640 71 368 -95 740 -446 1000 -85 64 -182 149 -261 230 l-87 89
-109 -107z"/>
<path d="M744 3260 c-238 -62 -419 -234 -500 -475 -23 -68 -27 -98 -28 -200
-1 -142 6 -179 34 -170 10 3 29 8 42 10 13 3 55 12 94 21 l71 15 -7 43 c-22
146 48 333 161 429 154 132 366 148 548 40 219 -130 394 -435 467 -810 4 -22
8 -23 120 -23 l116 0 -5 48 c-31 272 -182 607 -367 814 -104 117 -255 215
-390 253 -95 26 -265 29 -356 5z"/>
<path d="M3980 3273 c-53 -8 -138 -36 -200 -65 -279 -132 -521 -485 -616 -900
-2 -10 -6 -28 -9 -40 -3 -13 -8 -46 -11 -75 l-7 -52 118 2 c118 2 118 2 122
27 44 316 250 675 456 799 279 166 605 45 698 -260 20 -68 28 -173 16 -220 -6
-25 -4 -26 51 -39 31 -7 82 -19 112 -26 37 -9 58 -10 65 -3 6 6 10 66 10 142
0 118 -3 141 -29 220 -98 301 -355 494 -657 494 -52 0 -105 -2 -119 -4z"/>
<path d="M1174 1830 c0 -60 2 -111 5 -111 19 -4 2634 -3 2640 1 4 3 7 53 7
113 l0 107 -1326 0 -1326 0 0 -110z"/>
<path d="M2097 1512 c-9 -2 -17 -10 -17 -18 0 -22 -47 -157 -79 -226 -16 -35
-55 -101 -86 -148 l-57 -84 34 -70 c93 -194 296 -394 510 -503 29 -15 55 -28
58 -28 3 -1 15 -4 27 -9 16 -5 42 3 93 28 216 109 391 269 501 461 68 118 68
110 1 211 -68 103 -114 201 -145 310 l-22 78 -100 -1 c-55 -1 -108 -2 -118 -2
-15 -1 -17 -7 -12 -43 16 -105 141 -414 179 -440 14 -10 -37 -80 -119 -163
-82 -83 -108 -104 -182 -152 -51 -32 -57 -34 -86 -22 -79 33 -231 167 -310
272 l-36 48 54 102 c68 129 125 294 129 371 l1 29 -101 1 c-55 1 -108 0 -117
-2z"/>
</g>
</svg>
