<svg id="Layer_1" data-name="Layer 1" xmlns="http://www.w3.org/2000/svg" viewBox="0 0 141.23 52.31">
  <defs>
    <style>
      .cls-1 {
        fill: #fff;
      }
    </style>
  </defs>
  <title>365 Logo</title>
  <g>
    <g>
      <path class="cls-1" d="M4,32.08l2.46-2.93a8.72,8.72,0,0,0,5.66,2.29c1.71,0,2.73-.67,2.73-1.78V29.6c0-1-.65-1.59-3.82-2.39-3.82-1-6.28-2-6.28-5.76V21.4c0-3.42,2.76-5.68,6.63-5.68a11,11,0,0,1,7,2.4l-2.17,3.12a8.92,8.92,0,0,0-4.93-1.86c-1.6,0-2.44.73-2.44,1.64v.05c0,1.24.81,1.64,4.09,2.48,3.84,1,6,2.37,6,5.65v.05c0,3.74-2.87,5.84-7,5.84a12.1,12.1,0,0,1-8-3"/>
      <path class="cls-1" d="M20.55,27.69v-.05a7.43,7.43,0,0,1,7.61-7.51A7.15,7.15,0,0,1,34,22.55l-2.52,2.69a4.25,4.25,0,0,0-3.3-1.59,3.69,3.69,0,0,0-3.52,3.93v.05a3.7,3.7,0,0,0,3.68,4,4.61,4.61,0,0,0,3.33-1.53L34,32.51a7.32,7.32,0,0,1-5.93,2.64,7.39,7.39,0,0,1-7.55-7.45"/>
      <path class="cls-1" d="M46.48,27.69v-.05a3.84,3.84,0,0,0-3.82-4,3.7,3.7,0,0,0-3.76,3.93v.05a3.84,3.84,0,0,0,3.82,4,3.7,3.7,0,0,0,3.76-3.93m-11.64,0v-.05a7.59,7.59,0,0,1,7.88-7.51,7.52,7.52,0,0,1,7.82,7.45v.05a7.59,7.59,0,0,1-7.88,7.51,7.52,7.52,0,0,1-7.82-7.45"/>
      <path class="cls-1" d="M52.14,29.74V20.4h4.11v8c0,1.94.92,2.93,2.49,2.93s2.57-1,2.57-2.93v-8h4.11V34.82H61.32v-2a5.14,5.14,0,0,1-4.25,2.31c-3.11,0-4.93-2-4.93-5.35"/>
      <path class="cls-1" d="M67.83,30.73v-14h4.11V20.4h3.41v3.5H71.94v6.16c0,.94.41,1.4,1.33,1.4a4.21,4.21,0,0,0,2-.51v3.28a6.09,6.09,0,0,1-3.25.83c-2.52,0-4.22-1-4.22-4.33"/>
      <path class="cls-1" d="M77.17,32.91l1.76-2.69a8.23,8.23,0,0,0,4.57,1.72c1.19,0,1.73-.43,1.73-1.08v-.05c0-.89-1.41-1.18-3-1.67-2-.59-4.33-1.53-4.33-4.33v-.05c0-2.93,2.38-4.57,5.31-4.57a10.09,10.09,0,0,1,5.41,1.67L87,24.68a8.63,8.63,0,0,0-3.93-1.35c-1,0-1.52.43-1.52,1v.05c0,.81,1.38,1.18,3,1.72,2,.67,4.39,1.64,4.39,4.28v.05c0,3.2-2.41,4.66-5.55,4.66a10.2,10.2,0,0,1-6.23-2.18"/>
    </g>
    <g>
      <path class="cls-1" d="M106,20.17a13.19,13.19,0,0,1,2,5.22h2.14A15.14,15.14,0,0,0,107.8,19c-1.72-2.61-3.95-4-6.46-4h0a6.31,6.31,0,0,0-4.92,2.35,6.55,6.55,0,0,0-1.32,5.56l2.08-.45a4.51,4.51,0,0,1,.9-3.78,4.13,4.13,0,0,1,3.26-1.56h0C103.56,17.14,105.11,18.79,106,20.17Z"/>
      <path class="cls-1" d="M121.49,35a10.14,10.14,0,0,1-1.71-3.84h-2.16a11.94,11.94,0,0,0,1.77,4.53A9,9,0,0,1,116,38.81h0a9,9,0,0,1-3.41-3.12,11.94,11.94,0,0,0,1.77-4.53h-2.16A10.13,10.13,0,0,1,110.45,35l-.36.5.26.56a10.8,10.8,0,0,0,5.19,4.89l.43.19h0l.43-.19a10.8,10.8,0,0,0,5.19-4.89l.26-.56Z"/>
      <path class="cls-1" d="M125.92,20.17A13.19,13.19,0,0,0,124,25.4h-2.14A15.14,15.14,0,0,1,124.14,19c1.71-2.61,3.95-4,6.46-4h0a6.31,6.31,0,0,1,4.91,2.35,6.55,6.55,0,0,1,1.32,5.56l-2.08-.45a4.52,4.52,0,0,0-.9-3.78,4.13,4.13,0,0,0-3.26-1.56h0C128.38,17.14,126.83,18.79,125.92,20.17Z"/>
      <g>
        <path class="cls-1" d="M112.25,25.4h2.14a21.21,21.21,0,0,0-2.09-6.49,13.67,13.67,0,0,1-1.66-5.46,7.28,7.28,0,0,1,3.14-5.58c.34-.26,1.31-1,2.19-1.79.87.8,1.84,1.54,2.19,1.79a7.28,7.28,0,0,1,3.14,5.58,13.68,13.68,0,0,1-1.66,5.46,21.2,21.2,0,0,0-2.09,6.49h2.14a20,20,0,0,1,1.89-5.62c1-2.11,1.86-4.1,1.84-6.34a9.39,9.39,0,0,0-4-7.26,24.57,24.57,0,0,1-2.68-2.3L116,3l-.78.83a24.55,24.55,0,0,1-2.68,2.3,9.4,9.4,0,0,0-4,7.26c0,2.24.89,4.23,1.84,6.34A19.94,19.94,0,0,1,112.25,25.4Z"/>
        <rect class="cls-1" x="103.81" y="27.26" width="24.32" height="2.03"/>
      </g>
    </g>
    <g>
      <path class="cls-1" d="M5.64,48.87A4.88,4.88,0,0,1,4,48.08l.67-1.48a5.25,5.25,0,0,0,3.06.94,2.65,2.65,0,0,0,1.36-.29.88.88,0,0,0,.47-.79.78.78,0,0,0-.43-.7,5.85,5.85,0,0,0-1.54-.49,8.59,8.59,0,0,1-2-.61,2.59,2.59,0,0,1-1.08-.88,2.33,2.33,0,0,1-.34-1.3A2.54,2.54,0,0,1,4.65,41a3.15,3.15,0,0,1,1.33-1,4.84,4.84,0,0,1,2-.38,6.4,6.4,0,0,1,1.93.29,4,4,0,0,1,1.48.78L10.7,42.1A4.57,4.57,0,0,0,8,41.16a2.29,2.29,0,0,0-1.28.31,1,1,0,0,0-.47.86.77.77,0,0,0,.18.53,1.5,1.5,0,0,0,.6.37,9.22,9.22,0,0,0,1.2.33,6.68,6.68,0,0,1,2.61,1,2.08,2.08,0,0,1,.8,1.73,2.47,2.47,0,0,1-1,2.09,4.74,4.74,0,0,1-2.87.76A7.39,7.39,0,0,1,5.64,48.87Z"/>
      <path class="cls-1" d="M19.27,42.51V49h-2v-.93a2.07,2.07,0,0,1-.81.77,2.38,2.38,0,0,1-1.13.27,2.35,2.35,0,0,1-1.85-.68,3,3,0,0,1-.61-2.07V42.51h2v3.92a1.28,1.28,0,0,0,.25.86,1,1,0,0,0,.76.28,1.24,1.24,0,0,0,1-.4,1.49,1.49,0,0,0,.37-1.05V42.51Z"/>
      <path class="cls-1" d="M23.36,42.51H25V44H23.36v5h-2V44H20.1v-1.5h1.24a2.72,2.72,0,0,1,.81-2.08,3.85,3.85,0,0,1,2.39-.79l.74,0,.12,1.48-.63,0a1.85,1.85,0,0,0-1.09.29,1.05,1.05,0,0,0-.31.86Z"/>
      <path class="cls-1" d="M28.2,42.51h1.64V44H28.2v5h-2V44H24.94v-1.5h1.24A2.72,2.72,0,0,1,27,40.43a3.85,3.85,0,0,1,2.39-.79l.74,0,.12,1.48-.63,0a1.85,1.85,0,0,0-1.09.29,1.05,1.05,0,0,0-.31.86Z"/>
      <path class="cls-1" d="M31.95,48.73a2.94,2.94,0,0,1-1.22-1.18,4,4,0,0,1,0-3.6,2.9,2.9,0,0,1,1.22-1.18,4.28,4.28,0,0,1,3.66,0,2.91,2.91,0,0,1,1.22,1.18,4,4,0,0,1,0,3.6,3,3,0,0,1-1.22,1.18,4.22,4.22,0,0,1-3.66,0Zm3.3-3a2.19,2.19,0,0,0-.38-1.41,1.33,1.33,0,0,0-1.09-.47q-1.47,0-1.47,1.87t1.47,1.87Q35.25,47.62,35.25,45.74Z"/>
      <path class="cls-1" d="M38.49,49V39.67h2V49Z"/>
      <path class="cls-1" d="M49.06,49H46.59l-2.51-2.91V49h-2V39.67h2V45.3l2.42-2.78H48.9l-2.75,3.11Z"/>
    </g>
  </g>
</svg>
